<svg width="179" height="42" viewBox="0 0 179 42" fill="none" xmlns="http://www.w3.org/2000/svg">
<g filter="url(#filter0_d_2142_2)">
<rect x="4" y="3" width="169.394" height="32.3" rx="4" fill="#DBE9FB"/>
</g>
<path d="M21.968 23.76L21.728 20.112L18.352 20.544L16.96 20.192L16.128 23.824L14.272 24.016C14.7307 21.0827 15.1147 18.9707 15.424 17.68C15.9787 15.3333 16.6987 13.3173 17.584 11.632L21.808 11.36C22.2453 12.8853 22.688 14.4107 23.136 15.936C23.6053 17.696 23.8987 19.248 24.016 20.592L24.32 23.984L21.968 23.76ZM20.128 13.152L18.56 13.296C18.0907 14.704 17.76 15.9147 17.568 16.928C17.5467 17.1413 17.5093 17.456 17.456 17.872C17.456 17.872 17.392 18.272 17.264 19.072L21.344 18.704C21.4293 18.6933 21.472 18.496 21.472 18.112C21.472 17.7067 21.296 16.8587 20.944 15.568C20.6027 14.2773 20.3307 13.472 20.128 13.152ZM25.877 16.352C25.877 14.5707 26.0743 13.4987 26.469 13.136C26.6503 12.976 27.4343 12.848 28.821 12.752C29.781 12.688 30.6397 12.656 31.397 12.656C31.9623 12.656 32.757 12.7573 33.781 12.96L33.413 14.256C32.261 14.1493 31.685 14.096 31.685 14.096C31.2263 14.096 30.6823 14.1387 30.053 14.224C29.2423 14.3307 28.7623 14.464 28.613 14.624C28.4637 14.7733 28.3357 15.1413 28.229 15.728C28.133 16.2187 28.085 16.6347 28.085 16.976C28.085 18.032 28.2077 19.808 28.453 22.304C29.6157 22.592 30.501 22.736 31.109 22.736C31.301 22.736 31.4343 22.72 31.509 22.688C31.8823 22.528 32.069 21.7387 32.069 20.32C32.069 20.4053 32.021 20.0373 31.925 19.216L30.885 19.12L31.141 18.176C33.093 18.176 34.133 18.2347 34.261 18.352C33.9197 21.2107 33.6157 22.8747 33.349 23.344C33.2103 23.6 32.821 23.808 32.181 23.968C31.6797 24.0853 31.2263 24.144 30.821 24.144C30.2557 24.144 29.5463 24.096 28.693 24C27.6263 23.872 26.9703 23.7227 26.725 23.552C26.4477 22.7093 26.2343 21.5307 26.085 20.016C25.9463 18.736 25.877 17.5147 25.877 16.352ZM42.0118 19.232L38.3478 19.488V19.92C38.3371 21.3707 38.4224 22.2027 38.6038 22.416C38.7851 22.6293 40.0811 22.7147 42.4918 22.672L42.2678 23.808C40.2411 23.9893 38.6571 24.08 37.5158 24.08C36.8224 24.08 36.4438 24.032 36.3798 23.936C36.1664 23.6587 36.0598 21.2533 36.0598 16.72C36.0598 14.5013 36.1611 13.2853 36.3638 13.072C36.5771 12.8587 38.2678 12.752 41.4358 12.752C41.9478 12.752 42.3904 12.7573 42.7638 12.768L42.4598 14.144C40.2411 14.144 39.0038 14.2827 38.7478 14.56C38.5451 14.784 38.4331 15.8133 38.4118 17.648L38.6518 17.952L42.1718 18.128L42.0118 19.232ZM52.8131 23.6L51.1171 24.032C49.9651 20.4267 48.6905 17.5733 47.2931 15.472L46.7651 15.728C46.5838 18.0107 46.4718 20.7467 46.4291 23.936L44.7491 24.112C44.7491 23.248 44.7225 21.7707 44.6691 19.68C44.6265 17.728 44.6051 16.2453 44.6051 15.232C44.6051 15.232 44.6798 14.5227 44.8291 13.104L47.8691 12.784C48.9465 14.64 49.6185 15.808 49.8851 16.288C50.5998 17.6533 51.1278 18.896 51.4691 20.016L51.3731 13.776C51.3731 13.776 51.4265 13.424 51.5331 12.72L53.8531 12.656C53.2451 17.4773 52.8985 21.1253 52.8131 23.6ZM59.4179 24C58.8525 24 57.7805 23.9787 56.2019 23.936C56.1379 22.4853 56.0579 20.304 55.9619 17.392C55.9512 16.3787 55.9139 14.864 55.8499 12.848L59.9459 12.608C60.2339 12.5973 60.8365 12.7093 61.7539 12.944C62.6819 13.1787 63.2205 13.3813 63.3699 13.552C63.4232 13.6267 63.4979 13.7333 63.5939 13.872C64.0739 14.5973 64.3139 15.3493 64.3139 16.128C64.3139 19.744 63.7059 22.1013 62.4899 23.2C62.2019 23.456 61.7165 23.6587 61.0339 23.808C60.4685 23.936 59.9299 24 59.4179 24ZM61.9459 15.12L60.4899 14.272L58.4099 14.256C58.3139 16.3893 58.2659 18.128 58.2659 19.472L58.2819 22.72C58.4952 22.7413 58.7139 22.752 58.9379 22.752C59.5139 22.752 60.3139 22.5067 61.3379 22.016C61.7752 20.8 62.0365 18.864 62.1219 16.208C62.0899 15.952 62.0312 15.5893 61.9459 15.12ZM67.1105 23.824L65.2865 24.032C65.6918 21.3867 66.0385 19.4613 66.3265 18.256C66.8278 16.1227 67.4838 14.288 68.2945 12.752L72.1345 12.512C72.9665 15.392 73.5425 17.6533 73.8625 19.296C73.9372 19.648 74.0278 20.1707 74.1345 20.864C74.1345 20.864 74.2305 21.9093 74.4225 24L72.1985 23.776L71.9745 20.528L69.0305 20.896L67.8465 20.592L67.1105 23.824ZM71.7025 18.528C71.7025 18.2187 71.5478 17.4987 71.2385 16.368C70.9292 15.2267 70.6945 14.528 70.5345 14.272L69.2705 14.384C68.8545 15.632 68.5665 16.704 68.4065 17.6C68.3852 17.7813 68.3532 18.0587 68.3105 18.432C68.2678 18.656 68.2145 18.9867 68.1505 19.424L71.6545 19.104C71.6865 19.104 71.7025 18.912 71.7025 18.528ZM78.3719 23.744L76.0199 24C76.1585 22.2507 76.2279 20.416 76.2279 18.496C76.2279 18.496 76.2012 16.6133 76.1479 12.848L79.0119 12.672C79.4279 12.64 79.9399 12.6613 80.5479 12.736C81.0705 12.8 81.5879 12.8693 82.0999 12.944L83.1559 13.872C83.2625 14.4907 83.3745 15.104 83.4919 15.712C83.6305 16.5013 83.6839 17.0987 83.6519 17.504V17.584C83.3425 17.936 83.0332 18.2933 82.7239 18.656C82.2972 19.136 81.9505 19.4133 81.6839 19.488C82.2172 20.4267 83.3479 21.9893 85.0759 24.176L83.5719 24.608C83.2839 24.3307 82.4625 23.4507 81.1079 21.968C79.7105 20.4427 78.9852 19.616 78.9319 19.488C78.9319 19.488 78.8465 19.2427 78.6759 18.752C79.5399 18.5173 80.0572 18.3573 80.2279 18.272C80.5479 18.112 80.9639 17.7493 81.4759 17.184L81.1399 14.176L78.2279 14.352C78.1959 15.7707 78.1799 17.0187 78.1799 18.096C78.1799 20.2293 78.2439 22.112 78.3719 23.744ZM97.7455 14.384C97.0095 14.256 96.3428 14.192 95.7455 14.192C94.9562 14.192 94.3428 14.2987 93.9055 14.512C93.1908 14.864 92.8068 15.3387 92.7535 15.936C92.7215 16.3947 92.7055 16.8853 92.7055 17.408C92.7055 19.296 92.8602 20.7253 93.1695 21.696C93.2868 22.0373 93.5855 22.3093 94.0655 22.512C94.4495 22.672 94.8548 22.752 95.2815 22.752C95.6122 22.752 96.0335 22.7147 96.5455 22.64C97.2388 22.544 97.6602 22.4853 97.8095 22.464L97.4575 23.744C95.6442 24 94.7375 24.128 94.7375 24.128C94.3855 24.128 93.8575 24.048 93.1535 23.888C92.3642 23.696 91.8895 23.5147 91.7295 23.344C91.3135 22.864 90.9615 21.872 90.6735 20.368C90.4388 19.12 90.3215 18.0533 90.3215 17.168C90.3215 16.8587 90.4122 16.3627 90.5935 15.68C90.7748 14.9973 90.9348 14.5067 91.0735 14.208C91.1588 14.0373 91.4095 13.8027 91.8255 13.504C92.2415 13.1947 92.5508 13.008 92.7535 12.944C93.1908 12.8053 93.8682 12.736 94.7855 12.736C96.3535 12.736 97.5002 12.8587 98.2255 13.104L97.7455 14.384ZM103.531 24.032C102.155 24.032 101.312 23.9093 101.003 23.664C100.011 22.896 99.3498 21.7173 99.0191 20.128C98.8271 19.1787 98.7311 17.7867 98.7311 15.952C98.7311 15.76 98.7365 15.6533 98.7471 15.632C99.0351 14.4373 99.6058 13.6 100.459 13.12C101.174 12.704 102.187 12.496 103.499 12.496C105.014 12.496 106.123 12.752 106.827 13.264C107.307 13.6053 107.632 14.0853 107.803 14.704C107.931 15.1307 107.995 15.7227 107.995 16.48C107.995 17.0773 107.963 17.8027 107.899 18.656C107.856 19.2213 107.616 20.0427 107.179 21.12C106.699 22.272 106.267 22.9867 105.883 23.264C105.755 23.36 105.371 23.5147 104.731 23.728C104.091 23.9307 103.691 24.032 103.531 24.032ZM102.475 14.24C102.272 14.24 101.99 14.416 101.627 14.768C101.275 15.12 101.088 15.408 101.067 15.632C100.992 16.4427 100.955 17.52 100.955 18.864C100.955 20.2187 101.28 21.2427 101.931 21.936C102.102 22.1173 102.651 22.208 103.579 22.208C104.123 22.208 104.512 22.16 104.747 22.064C104.928 21.9893 105.142 21.4027 105.387 20.304C105.558 19.504 105.675 18.8427 105.739 18.32C105.814 17.7547 105.851 17.2373 105.851 16.768C105.851 15.5093 105.611 14.768 105.131 14.544C105.014 14.48 104.587 14.4107 103.851 14.336C103.179 14.272 102.72 14.24 102.475 14.24ZM118.266 23.6L116.57 24.032C115.418 20.4267 114.144 17.5733 112.746 15.472L112.218 15.728C112.037 18.0107 111.925 20.7467 111.882 23.936L110.202 24.112C110.202 23.248 110.176 21.7707 110.122 19.68C110.08 17.728 110.058 16.2453 110.058 15.232C110.058 15.232 110.133 14.5227 110.282 13.104L113.322 12.784C114.4 14.64 115.072 15.808 115.338 16.288C116.053 17.6533 116.581 18.896 116.922 20.016L116.826 13.776C116.826 13.776 116.88 13.424 116.986 12.72L119.306 12.656C118.698 17.4773 118.352 21.1253 118.266 23.6ZM123.527 14.336L123.255 16.32C123.34 16.448 124.13 16.8267 125.623 17.456C127.074 18.064 127.9 18.5867 128.103 19.024C128.188 19.1733 128.231 19.3973 128.231 19.696C128.231 19.984 128.156 20.5227 128.007 21.312C127.847 22.1653 127.708 22.6827 127.591 22.864C127.484 23.0347 127.314 23.296 127.079 23.648C126.215 23.9147 125.143 24.048 123.863 24.048C122.903 24.048 122.044 23.9893 121.287 23.872L121.159 22.224C121.81 22.448 122.54 22.56 123.351 22.56C123.756 22.56 124.188 22.512 124.647 22.416C125.202 22.2987 125.596 22.144 125.831 21.952C125.906 21.888 125.943 21.7227 125.943 21.456C125.943 21.04 125.874 20.5013 125.735 19.84C125.543 19.6587 124.791 19.2907 123.479 18.736C122.252 18.224 121.559 17.8293 121.399 17.552C121.239 17.2747 121.159 16.4907 121.159 15.2C121.159 14.5387 121.18 14.128 121.223 13.968C121.287 13.744 121.495 13.4027 121.847 12.944C122.007 12.7307 122.647 12.624 123.767 12.624C124.919 12.624 126.252 12.7093 127.767 12.88L127.431 14.128C127.41 14.128 127.378 14.128 127.335 14.128C127.132 14.128 126.818 14.1173 126.391 14.096C125.975 14.0747 125.66 14.064 125.447 14.064C124.498 14.064 123.858 14.1547 123.527 14.336ZM133.96 24.048C132.69 24.048 131.864 23.9413 131.48 23.728C131.16 23.5573 130.824 22.9653 130.472 21.952C130.13 21.0027 129.965 20.304 129.976 19.856V19.344C129.986 18.6933 129.949 17.7493 129.864 16.512C129.789 15.2213 129.752 14.2773 129.752 13.68C129.752 13.4453 129.752 13.216 129.752 12.992L132.104 12.816C132.061 13.4773 132.04 14.7573 132.04 16.656C132.04 19.088 132.077 20.592 132.152 21.168C132.226 21.7333 132.44 22.1067 132.792 22.288C133.048 22.4267 133.485 22.496 134.104 22.496C134.829 22.496 135.25 22.3947 135.368 22.192C135.88 21.264 136.168 19.5947 136.232 17.184C136.242 16.832 136.29 16.112 136.376 15.024C136.44 14.128 136.466 13.408 136.456 12.864L139.032 12.704L138.12 21.104C138.12 21.1253 138.056 21.2747 137.928 21.552C137.309 22.8853 136.696 23.6587 136.088 23.872C135.768 23.9893 135.058 24.048 133.96 24.048ZM140.962 24.16C141.026 23.4987 141.058 22.064 141.058 19.856C141.058 18.9813 141.037 17.8133 140.994 16.352C140.952 14.6133 140.925 13.44 140.914 12.832L143.794 12.608C143.496 14.432 143.229 17.616 142.994 22.16L147.026 22.432L146.802 23.728L140.962 24.16ZM154.295 14.096L151.655 14.608L151.367 15.024C151.303 16.9867 151.191 19.9307 151.031 23.856L149.239 24.224C149.271 23.7867 149.287 23.312 149.287 22.8C149.287 22.2027 149.265 21.296 149.223 20.08C149.18 18.864 149.159 17.9573 149.159 17.36C149.159 16.752 149.095 15.9413 148.967 14.928L148.535 14.672L146.055 14.384L146.263 13.024C148.865 12.928 151.484 12.816 154.119 12.688L154.295 14.096ZM155.579 23.824L153.755 24.032C154.161 21.3867 154.507 19.4613 154.795 18.256C155.297 16.1227 155.953 14.288 156.763 12.752L160.603 12.512C161.435 15.392 162.011 17.6533 162.331 19.296C162.406 19.648 162.497 20.1707 162.603 20.864C162.603 20.864 162.699 21.9093 162.891 24L160.667 23.776L160.443 20.528L157.499 20.896L156.315 20.592L155.579 23.824ZM160.171 18.528C160.171 18.2187 160.017 17.4987 159.707 16.368C159.398 15.2267 159.163 14.528 159.003 14.272L157.739 14.384C157.323 15.632 157.035 16.704 156.875 17.6C156.854 17.7813 156.822 18.0587 156.779 18.432C156.737 18.656 156.683 18.9867 156.619 19.424L160.123 19.104C160.155 19.104 160.171 18.912 160.171 18.528Z" fill="black"/>
<defs>
<filter id="filter0_d_2142_2" x="0.4" y="0.4" width="178.594" height="41.5" filterUnits="userSpaceOnUse" color-interpolation-filters="sRGB">
<feFlood flood-opacity="0" result="BackgroundImageFix"/>
<feColorMatrix in="SourceAlpha" type="matrix" values="0 0 0 0 0 0 0 0 0 0 0 0 0 0 0 0 0 0 127 0" result="hardAlpha"/>
<feOffset dx="1" dy="2"/>
<feGaussianBlur stdDeviation="2.3"/>
<feComposite in2="hardAlpha" operator="out"/>
<feColorMatrix type="matrix" values="0 0 0 0 0.721569 0 0 0 0 0.490196 0 0 0 0 0.427451 0 0 0 1 0"/>
<feBlend mode="normal" in2="BackgroundImageFix" result="effect1_dropShadow_2142_2"/>
<feBlend mode="normal" in="SourceGraphic" in2="effect1_dropShadow_2142_2" result="shape"/>
</filter>
</defs>
</svg>
