<svg width="251" height="136" viewBox="0 0 251 136" fill="none" xmlns="http://www.w3.org/2000/svg">
<path d="M13.988 94.476C12.688 94.2507 11.5093 94.138 10.452 94.138C8.97867 94.138 7.83467 94.3373 7.02 94.736C6.48267 95.0133 6.006 95.3947 5.59 95.88C5.15667 96.4173 4.914 96.9633 4.862 97.518C4.79267 98.35 4.758 99.2427 4.758 100.196C4.758 103.628 5.044 106.228 5.616 107.996C5.824 108.62 6.38733 109.105 7.306 109.452C8.034 109.712 8.80533 109.842 9.62 109.842C10.192 109.842 10.92 109.781 11.804 109.66C13.104 109.469 13.8407 109.365 14.014 109.348L13.442 111.532L8.58 112.234C8.18133 112.286 7.27133 112.139 5.85 111.792C4.342 111.445 3.46667 111.133 3.224 110.856C2.47867 109.972 1.846 108.187 1.326 105.5C0.892667 103.281 0.676 101.375 0.676 99.78C0.676 99.26 0.849333 98.35 1.196 97.05C1.52533 95.802 1.81133 94.944 2.054 94.476C2.21 94.164 2.652 93.7393 3.38 93.202C4.12533 92.6647 4.68 92.3353 5.044 92.214C5.824 91.9713 7.02867 91.85 8.658 91.85C11.31 91.85 13.3553 92.058 14.794 92.474L13.988 94.476ZM18.5116 111.714L15.5476 112.052C16.2063 107.753 16.7696 104.625 17.2376 102.666C18.0523 99.1993 19.1183 96.218 20.4356 93.722L26.6756 93.332C28.0276 98.012 28.9636 101.687 29.4836 104.356C29.6049 104.928 29.7523 105.777 29.9256 106.904C29.9256 106.904 30.0816 108.603 30.3936 112L26.7796 111.636L26.4156 106.358L21.6316 106.956L19.7076 106.462L18.5116 111.714ZM25.9736 103.108C25.9736 102.605 25.7223 101.435 25.2196 99.598C24.7169 97.7433 24.3356 96.608 24.0756 96.192L22.0216 96.374C21.3456 98.402 20.8776 100.144 20.6176 101.6C20.5829 101.895 20.5309 102.345 20.4616 102.952C20.3923 103.316 20.3056 103.853 20.2016 104.564L25.8956 104.044C25.9476 104.044 25.9736 103.732 25.9736 103.108ZM49.0313 112.26V110.96C49.0313 103.871 48.78 99.65 48.2773 98.298L47.6013 98.402C46.96 99.962 46.3187 101.522 45.6773 103.082C44.8973 104.937 44.334 106.523 43.9873 107.84L41.4133 108.568C41.188 107.216 40.6073 105.483 39.6713 103.368C38.5447 100.82 37.8427 99.1213 37.5653 98.272L36.9153 98.688C36.8807 99.78 36.716 101.609 36.4213 104.174C36.144 106.514 36.0053 108.343 36.0053 109.66C36.0053 110.353 36.0313 111.038 36.0833 111.714L32.3913 112.078L33.3273 103.082C33.57 101.141 33.9253 98.22 34.3933 94.32L39.0213 93.592L39.8013 95.386C40.0093 95.802 40.3127 96.452 40.7113 97.336C41.5607 99.312 42.2627 101.392 42.8173 103.576C43.1813 102.224 43.8487 100.56 44.8193 98.584C46.1193 95.984 46.8993 94.3633 47.1593 93.722L51.2673 94.164C51.3367 95.724 51.6313 98.4973 52.1513 102.484C52.602 106.003 52.8187 108.785 52.8013 110.83L52.7753 111.636L49.0313 112.26ZM59.7923 111.818L57.0103 112.052L56.3603 98.454C56.3429 97.5007 56.2909 96.0187 56.2043 94.008L60.7023 93.592C60.5116 96.6427 60.3209 99.6847 60.1303 102.718C59.9049 106.427 59.7923 109.461 59.7923 111.818ZM78.128 111.35L75.372 112.052C73.5 106.193 71.4286 101.557 69.158 98.142L68.3 98.558C68.0053 102.267 67.8233 106.713 67.754 111.896L65.024 112.182C65.024 110.778 64.9806 108.377 64.894 104.98C64.8246 101.808 64.79 99.3987 64.79 97.752C64.79 97.752 64.9113 96.5993 65.154 94.294L70.094 93.774C71.8446 96.79 72.9366 98.688 73.37 99.468C74.5313 101.687 75.3893 103.706 75.944 105.526L75.788 95.386C75.788 95.386 75.8746 94.814 76.048 93.67L79.818 93.566C78.83 101.401 78.2666 107.329 78.128 111.35ZM96.5047 111.272L94.0087 112.234L93.5407 111.532L93.4887 104.798L87.0407 105.63L86.8067 111.792L83.6347 112.052C83.6347 109.036 83.5654 104.521 83.4267 98.506C83.4267 98.246 83.3834 97.6307 83.2967 96.66C83.2447 95.88 83.2187 95.256 83.2187 94.788C83.2187 94.4933 83.2274 94.216 83.2447 93.956L87.1707 93.826C87.1014 95.4727 87.0667 97.1713 87.0667 98.922C87.0667 100.534 87.11 101.843 87.1967 102.848L93.4627 102.614L94.0347 93.644L97.7007 93.124L96.9207 103.862C96.6607 108.091 96.522 110.561 96.5047 111.272ZM108.596 112.052C106.36 112.052 104.99 111.853 104.488 111.454C102.876 110.206 101.801 108.291 101.264 105.708C100.952 104.165 100.795 101.903 100.795 98.922C100.795 98.61 100.804 98.4367 100.822 98.402C101.29 96.4607 102.217 95.1 103.604 94.32C104.765 93.644 106.412 93.306 108.544 93.306C111.005 93.306 112.808 93.722 113.952 94.554C114.732 95.1087 115.26 95.8887 115.538 96.894C115.746 97.5873 115.85 98.5493 115.85 99.78C115.85 100.751 115.798 101.929 115.694 103.316C115.624 104.235 115.234 105.569 114.524 107.32C113.744 109.192 113.042 110.353 112.418 110.804C112.21 110.96 111.586 111.211 110.546 111.558C109.506 111.887 108.856 112.052 108.596 112.052ZM106.88 96.14C106.55 96.14 106.091 96.426 105.502 96.998C104.93 97.57 104.626 98.038 104.592 98.402C104.47 99.7193 104.41 101.47 104.41 103.654C104.41 105.855 104.938 107.519 105.996 108.646C106.273 108.941 107.166 109.088 108.674 109.088C109.558 109.088 110.19 109.01 110.572 108.854C110.866 108.733 111.213 107.779 111.612 105.994C111.889 104.694 112.08 103.619 112.184 102.77C112.305 101.851 112.366 101.011 112.366 100.248C112.366 98.2027 111.976 96.998 111.196 96.634C111.005 96.53 110.312 96.4173 109.116 96.296C108.024 96.192 107.278 96.14 106.88 96.14ZM122.452 96.296L122.01 99.52C122.149 99.728 123.431 100.343 125.858 101.366C128.215 102.354 129.559 103.203 129.888 103.914C130.027 104.157 130.096 104.521 130.096 105.006C130.096 105.474 129.975 106.349 129.732 107.632C129.472 109.019 129.247 109.859 129.056 110.154C128.883 110.431 128.605 110.856 128.224 111.428C126.82 111.861 125.078 112.078 122.998 112.078C121.438 112.078 120.043 111.983 118.812 111.792L118.604 109.114C119.661 109.478 120.849 109.66 122.166 109.66C122.825 109.66 123.527 109.582 124.272 109.426C125.173 109.235 125.815 108.984 126.196 108.672C126.317 108.568 126.378 108.299 126.378 107.866C126.378 107.19 126.265 106.315 126.04 105.24C125.728 104.945 124.506 104.347 122.374 103.446C120.381 102.614 119.254 101.973 118.994 101.522C118.734 101.071 118.604 99.7973 118.604 97.7C118.604 96.6253 118.639 95.958 118.708 95.698C118.812 95.334 119.15 94.7793 119.722 94.034C119.982 93.6873 121.022 93.514 122.842 93.514C124.714 93.514 126.881 93.6527 129.342 93.93L128.796 95.958C128.761 95.958 128.709 95.958 128.64 95.958C128.311 95.958 127.799 95.9407 127.106 95.906C126.43 95.8713 125.919 95.854 125.572 95.854C124.029 95.854 122.989 96.0013 122.452 96.296ZM146.853 112C145.934 112 144.192 111.965 141.627 111.896C141.523 109.539 141.393 105.994 141.237 101.262C141.22 99.6153 141.159 97.154 141.055 93.878L147.711 93.488C148.179 93.4707 149.158 93.6527 150.649 94.034C152.157 94.4153 153.032 94.7447 153.275 95.022C153.362 95.1433 153.483 95.3167 153.639 95.542C154.419 96.7207 154.809 97.9427 154.809 99.208C154.809 105.084 153.821 108.915 151.845 110.7C151.377 111.116 150.588 111.445 149.479 111.688C148.56 111.896 147.685 112 146.853 112ZM150.961 97.57L148.595 96.192L145.215 96.166C145.059 99.6327 144.981 102.458 144.981 104.642L145.007 109.92C145.354 109.955 145.709 109.972 146.073 109.972C147.009 109.972 148.309 109.573 149.973 108.776C150.684 106.8 151.108 103.654 151.247 99.338C151.195 98.922 151.1 98.3327 150.961 97.57ZM159.353 111.714L156.389 112.052C157.048 107.753 157.611 104.625 158.079 102.666C158.894 99.1993 159.96 96.218 161.277 93.722L167.517 93.332C168.869 98.012 169.805 101.687 170.325 104.356C170.447 104.928 170.594 105.777 170.767 106.904C170.767 106.904 170.923 108.603 171.235 112L167.621 111.636L167.257 106.358L162.473 106.956L160.549 106.462L159.353 111.714ZM166.815 103.108C166.815 102.605 166.564 101.435 166.061 99.598C165.559 97.7433 165.177 96.608 164.917 96.192L162.863 96.374C162.187 98.402 161.719 100.144 161.459 101.6C161.425 101.895 161.373 102.345 161.303 102.952C161.234 103.316 161.147 103.853 161.043 104.564L166.737 104.044C166.789 104.044 166.815 103.732 166.815 103.108ZM193.525 94.216L187.467 94.788L186.583 95.464C186.566 95.8973 186.522 96.6687 186.453 97.778C186.384 98.766 186.349 99.546 186.349 100.118C186.349 100.482 186.358 100.829 186.375 101.158L193.707 101.184L193.343 103.056L186.401 103.706L186.141 111.74L182.969 112.13C182.934 110.015 182.822 106.861 182.631 102.666C182.579 101.695 182.518 100.257 182.449 98.35L182.371 93.358L182.995 92.318L194.357 91.98L193.525 94.216ZM198.633 111.714L195.669 112.052C196.327 107.753 196.891 104.625 197.359 102.666C198.173 99.1993 199.239 96.218 200.557 93.722L206.797 93.332C208.149 98.012 209.085 101.687 209.605 104.356C209.726 104.928 209.873 105.777 210.047 106.904C210.047 106.904 210.203 108.603 210.515 112L206.901 111.636L206.537 106.358L201.753 106.956L199.829 106.462L198.633 111.714ZM206.095 103.108C206.095 102.605 205.843 101.435 205.341 99.598C204.838 97.7433 204.457 96.608 204.197 96.192L202.143 96.374C201.467 98.402 200.999 100.144 200.739 101.6C200.704 101.895 200.652 102.345 200.583 102.952C200.513 103.316 200.427 103.853 200.323 104.564L206.017 104.044C206.069 104.044 206.095 103.732 206.095 103.108ZM213.448 112.26C213.552 111.185 213.604 108.854 213.604 105.266C213.604 103.845 213.57 101.947 213.5 99.572C213.431 96.7467 213.388 94.84 213.37 93.852L218.05 93.488C217.565 96.452 217.132 101.626 216.75 109.01L223.302 109.452L222.938 111.558L213.448 112.26ZM226.892 111.714L223.928 112.052C224.587 107.753 225.15 104.625 225.618 102.666C226.433 99.1993 227.499 96.218 228.816 93.722L235.056 93.332C236.408 98.012 237.344 101.687 237.864 104.356C237.986 104.928 238.133 105.777 238.306 106.904C238.306 106.904 238.462 108.603 238.774 112L235.16 111.636L234.796 106.358L230.012 106.956L228.088 106.462L226.892 111.714ZM234.354 103.108C234.354 102.605 234.103 101.435 233.6 99.598C233.098 97.7433 232.716 96.608 232.456 96.192L230.402 96.374C229.726 98.402 229.258 100.144 228.998 101.6C228.964 101.895 228.912 102.345 228.842 102.952C228.773 103.316 228.686 103.853 228.582 104.564L234.276 104.044C234.328 104.044 234.354 103.732 234.354 103.108Z" fill="black" fill-opacity="0.84"/>
<path d="M17.28 122.568H14.316V126H13.272V117.84H17.64V118.824H14.316V121.584H17.28V122.568ZM23.6663 122.664V123.384C23.6663 124.232 23.4463 124.9 23.0063 125.388C22.5743 125.876 21.9543 126.12 21.1463 126.12C20.3463 126.12 19.7263 125.876 19.2863 125.388C18.8463 124.9 18.6263 124.232 18.6263 123.384V122.664C18.6263 121.832 18.8423 121.172 19.2743 120.684C19.7143 120.188 20.3383 119.94 21.1463 119.94C21.9543 119.94 22.5743 120.188 23.0063 120.684C23.4463 121.172 23.6663 121.832 23.6663 122.664ZM22.6463 122.664C22.6463 122.096 22.5183 121.652 22.2623 121.332C22.0063 121.004 21.6343 120.84 21.1463 120.84C20.6663 120.84 20.2943 121.004 20.0303 121.332C19.7743 121.652 19.6463 122.096 19.6463 122.664V123.384C19.6463 123.976 19.7743 124.432 20.0303 124.752C20.2943 125.072 20.6663 125.232 21.1463 125.232C21.6343 125.232 22.0063 125.072 22.2623 124.752C22.5183 124.432 22.6463 123.976 22.6463 123.384V122.664ZM28.3104 120.864C28.0864 120.864 27.8224 120.92 27.5184 121.032C27.2224 121.144 26.8624 121.372 26.4384 121.716V126H25.4544V120.06H26.3904V120.888C26.8144 120.528 27.1984 120.28 27.5424 120.144C27.8944 120.008 28.2304 119.94 28.5504 119.94C29.1024 119.94 29.5224 120.116 29.8104 120.468C30.1064 120.812 30.2544 121.304 30.2544 121.944V126H29.2704V122.088C29.2704 121.272 28.9504 120.864 28.3104 120.864ZM37.0139 122.664V123.384C37.0139 124.232 36.7939 124.9 36.3539 125.388C35.9219 125.876 35.3019 126.12 34.4939 126.12C33.6939 126.12 33.0739 125.876 32.6339 125.388C32.1939 124.9 31.9739 124.232 31.9739 123.384V122.664C31.9739 121.832 32.1899 121.172 32.6219 120.684C33.0619 120.188 33.6859 119.94 34.4939 119.94C35.3019 119.94 35.9219 120.188 36.3539 120.684C36.7939 121.172 37.0139 121.832 37.0139 122.664ZM35.9939 122.664C35.9939 122.096 35.8659 121.652 35.6099 121.332C35.3539 121.004 34.9819 120.84 34.4939 120.84C34.0139 120.84 33.6419 121.004 33.3779 121.332C33.1219 121.652 32.9939 122.096 32.9939 122.664V123.384C32.9939 123.976 33.1219 124.432 33.3779 124.752C33.6419 125.072 34.0139 125.232 34.4939 125.232C34.9819 125.232 35.3539 125.072 35.6099 124.752C35.8659 124.432 35.9939 123.976 35.9939 123.384V122.664ZM43.1461 126.06C42.7781 126.06 42.4821 125.976 42.2581 125.808C42.0421 125.64 41.8901 125.432 41.8021 125.184C41.4101 125.528 41.0541 125.772 40.7341 125.916C40.4141 126.052 40.0941 126.12 39.7741 126.12C39.2541 126.12 38.8701 125.952 38.6221 125.616C38.3741 125.28 38.2501 124.868 38.2501 124.38C38.2501 124.052 38.3101 123.76 38.4301 123.504C38.5501 123.248 38.7541 123.048 39.0421 122.904C39.3301 122.752 39.7181 122.676 40.2061 122.676C40.4221 122.676 40.6581 122.692 40.9141 122.724C41.1701 122.748 41.4301 122.78 41.6941 122.82V122.016C41.6941 121.568 41.5941 121.264 41.3941 121.104C41.2021 120.936 40.9181 120.852 40.5421 120.852C40.0301 120.852 39.4581 120.992 38.8261 121.272L38.5141 120.456C38.8821 120.288 39.2341 120.16 39.5701 120.072C39.9061 119.984 40.2461 119.94 40.5901 119.94C41.1501 119.94 41.5781 120.032 41.8741 120.216C42.1701 120.4 42.3741 120.644 42.4861 120.948C42.5981 121.252 42.6541 121.584 42.6541 121.944V124.512C42.6541 124.696 42.6901 124.852 42.7621 124.98C42.8341 125.1 42.9781 125.16 43.1941 125.16H43.3261V126.06H43.1461ZM39.2221 124.368C39.2221 124.64 39.2861 124.86 39.4141 125.028C39.5421 125.196 39.7261 125.28 39.9661 125.28C40.1741 125.28 40.4141 125.22 40.6861 125.1C40.9581 124.972 41.2941 124.72 41.6941 124.344V123.588C41.1501 123.5 40.6701 123.456 40.2541 123.456C39.8861 123.456 39.6221 123.532 39.4621 123.684C39.3021 123.836 39.2221 124.064 39.2221 124.368ZM48.3801 126V125.16C47.9641 125.52 47.5921 125.772 47.2641 125.916C46.9361 126.052 46.6081 126.12 46.2801 126.12C45.7521 126.12 45.3481 125.948 45.0681 125.604C44.7881 125.252 44.6481 124.76 44.6481 124.128V120.06H45.6321V123.984C45.6321 124.4 45.7041 124.708 45.8481 124.908C46.0001 125.1 46.2241 125.196 46.5201 125.196C46.7441 125.196 46.9961 125.14 47.2761 125.028C47.5561 124.916 47.9041 124.692 48.3201 124.356V120.06H49.3041V126H48.3801ZM55.0352 126V125.172C54.6672 125.524 54.3312 125.772 54.0272 125.916C53.7312 126.052 53.4232 126.12 53.1032 126.12C52.4712 126.12 51.9832 125.88 51.6392 125.4C51.3032 124.92 51.1352 124.248 51.1352 123.384V122.688C51.1352 121.848 51.3432 121.18 51.7592 120.684C52.1832 120.188 52.7952 119.94 53.5952 119.94C53.8272 119.94 54.0592 119.964 54.2912 120.012C54.5232 120.06 54.7552 120.128 54.9872 120.216V117.12H55.9712V126H55.0352ZM52.1552 123.384C52.1552 124.008 52.2512 124.468 52.4432 124.764C52.6432 125.052 52.9392 125.196 53.3312 125.196C53.5632 125.196 53.8032 125.14 54.0512 125.028C54.2992 124.908 54.6112 124.664 54.9872 124.296V121.128C54.7552 121.024 54.5312 120.952 54.3152 120.912C54.0992 120.864 53.8872 120.84 53.6792 120.84C53.1352 120.84 52.7432 121.004 52.5032 121.332C52.2712 121.66 52.1552 122.112 52.1552 122.688V123.384ZM59.1352 118.608H58.0312V117.504H59.1352V118.608ZM59.0752 126H58.0912V120.06H59.0752V126ZM65.9006 122.664V123.384C65.9006 124.232 65.6806 124.9 65.2406 125.388C64.8086 125.876 64.1886 126.12 63.3806 126.12C62.5806 126.12 61.9606 125.876 61.5206 125.388C61.0806 124.9 60.8606 124.232 60.8606 123.384V122.664C60.8606 121.832 61.0766 121.172 61.5086 120.684C61.9486 120.188 62.5726 119.94 63.3806 119.94C64.1886 119.94 64.8086 120.188 65.2406 120.684C65.6806 121.172 65.9006 121.832 65.9006 122.664ZM64.8806 122.664C64.8806 122.096 64.7526 121.652 64.4966 121.332C64.2406 121.004 63.8686 120.84 63.3806 120.84C62.9006 120.84 62.5286 121.004 62.2646 121.332C62.0086 121.652 61.8806 122.096 61.8806 122.664V123.384C61.8806 123.976 62.0086 124.432 62.2646 124.752C62.5286 125.072 62.9006 125.232 63.3806 125.232C63.8686 125.232 64.2406 125.072 64.4966 124.752C64.7526 124.432 64.8806 123.976 64.8806 123.384V122.664ZM63.8126 119.052H62.9606L64.0406 117.06L64.9766 117.492L63.8126 119.052ZM67.6768 124.56V117.12H68.6608V124.512C68.6608 124.728 68.6928 124.892 68.7568 125.004C68.8288 125.108 68.9688 125.16 69.1768 125.16H69.3688V126.06H69.0928C68.5648 126.06 68.1968 125.92 67.9888 125.64C67.7808 125.36 67.6768 125 67.6768 124.56ZM75.5569 122.664V123.384C75.5569 124.232 75.3369 124.9 74.8969 125.388C74.4649 125.876 73.8449 126.12 73.0369 126.12C72.2369 126.12 71.6169 125.876 71.1769 125.388C70.7369 124.9 70.5169 124.232 70.5169 123.384V122.664C70.5169 121.832 70.7329 121.172 71.1649 120.684C71.6049 120.188 72.2289 119.94 73.0369 119.94C73.8449 119.94 74.4649 120.188 74.8969 120.684C75.3369 121.172 75.5569 121.832 75.5569 122.664ZM74.5369 122.664C74.5369 122.096 74.4089 121.652 74.1529 121.332C73.8969 121.004 73.5249 120.84 73.0369 120.84C72.5569 120.84 72.1849 121.004 71.9209 121.332C71.6649 121.652 71.5369 122.096 71.5369 122.664V123.384C71.5369 123.976 71.6649 124.432 71.9209 124.752C72.1849 125.072 72.5569 125.232 73.0369 125.232C73.5249 125.232 73.8969 125.072 74.1529 124.752C74.4089 124.432 74.5369 123.976 74.5369 123.384V122.664ZM82.0971 126.744C82.0971 127.328 81.8571 127.796 81.3771 128.148C80.9051 128.5 80.2531 128.676 79.4211 128.676C79.0051 128.676 78.5691 128.62 78.1131 128.508C77.6651 128.396 77.2411 128.216 76.8411 127.968L77.1771 127.2C77.5771 127.424 77.9611 127.58 78.3291 127.668C78.7051 127.764 79.0691 127.812 79.4211 127.812C79.9651 127.812 80.3851 127.724 80.6811 127.548C80.9771 127.372 81.1251 127.136 81.1251 126.84C81.1251 126.624 81.0531 126.456 80.9091 126.336C80.7651 126.224 80.5331 126.168 80.2131 126.168H78.8331C78.3131 126.168 77.9371 126.044 77.7051 125.796C77.4731 125.548 77.3571 125.276 77.3571 124.98C77.3571 124.772 77.4051 124.568 77.5011 124.368C77.5971 124.16 77.7331 123.956 77.9091 123.756C77.6291 123.588 77.4051 123.36 77.2371 123.072C77.0691 122.776 76.9851 122.42 76.9851 122.004C76.9851 121.548 77.0811 121.168 77.2731 120.864C77.4731 120.56 77.7371 120.332 78.0651 120.18C78.3931 120.02 78.7611 119.94 79.1691 119.94H79.3731C79.6531 119.94 79.9091 119.98 80.1411 120.06H82.2771V120.936L80.9811 120.756C81.1491 120.9 81.2851 121.08 81.3891 121.296C81.4931 121.504 81.5451 121.76 81.5451 122.064C81.5451 122.496 81.4451 122.86 81.2451 123.156C81.0531 123.452 80.7931 123.68 80.4651 123.84C80.1371 123.992 79.7731 124.068 79.3731 124.068H79.1691C79.0651 124.068 78.9651 124.064 78.8691 124.056C78.7731 124.04 78.6771 124.024 78.5811 124.008C78.3491 124.264 78.2331 124.516 78.2331 124.764C78.2331 125.084 78.4571 125.244 78.9051 125.244H80.2491C80.8251 125.244 81.2771 125.372 81.6051 125.628C81.9331 125.884 82.0971 126.256 82.0971 126.744ZM79.3731 123.216C79.6851 123.216 79.9611 123.116 80.2011 122.916C80.4411 122.716 80.5611 122.412 80.5611 122.004C80.5611 121.604 80.4411 121.304 80.2011 121.104C79.9611 120.896 79.6851 120.792 79.3731 120.792H79.1691C78.8491 120.792 78.5691 120.896 78.3291 121.104C78.0891 121.304 77.9691 121.604 77.9691 122.004C77.9691 122.412 78.0891 122.716 78.3291 122.916C78.5691 123.116 78.8491 123.216 79.1691 123.216H79.3731ZM87.9234 126.06C87.5554 126.06 87.2594 125.976 87.0354 125.808C86.8194 125.64 86.6674 125.432 86.5794 125.184C86.1874 125.528 85.8314 125.772 85.5114 125.916C85.1914 126.052 84.8714 126.12 84.5514 126.12C84.0314 126.12 83.6474 125.952 83.3994 125.616C83.1514 125.28 83.0274 124.868 83.0274 124.38C83.0274 124.052 83.0874 123.76 83.2074 123.504C83.3274 123.248 83.5314 123.048 83.8194 122.904C84.1074 122.752 84.4954 122.676 84.9834 122.676C85.1994 122.676 85.4354 122.692 85.6914 122.724C85.9474 122.748 86.2074 122.78 86.4714 122.82V122.016C86.4714 121.568 86.3714 121.264 86.1714 121.104C85.9794 120.936 85.6954 120.852 85.3194 120.852C84.8074 120.852 84.2354 120.992 83.6034 121.272L83.2914 120.456C83.6594 120.288 84.0114 120.16 84.3474 120.072C84.6834 119.984 85.0234 119.94 85.3674 119.94C85.9274 119.94 86.3554 120.032 86.6514 120.216C86.9474 120.4 87.1514 120.644 87.2634 120.948C87.3754 121.252 87.4314 121.584 87.4314 121.944V124.512C87.4314 124.696 87.4674 124.852 87.5394 124.98C87.6114 125.1 87.7554 125.16 87.9714 125.16H88.1034V126.06H87.9234ZM83.9994 124.368C83.9994 124.64 84.0634 124.86 84.1914 125.028C84.3194 125.196 84.5034 125.28 84.7434 125.28C84.9514 125.28 85.1914 125.22 85.4634 125.1C85.7354 124.972 86.0714 124.72 86.4714 124.344V123.588C85.9274 123.5 85.4474 123.456 85.0314 123.456C84.6634 123.456 84.3994 123.532 84.2394 123.684C84.0794 123.836 83.9994 124.064 83.9994 124.368ZM92.3267 126V117.84H93.4187C94.1467 118.88 94.8147 119.928 95.4227 120.984C96.0387 122.032 96.6147 123.128 97.1507 124.272L97.0307 121.152V117.84H98.0507V126H96.9587C96.3987 124.832 95.8187 123.696 95.2187 122.592C94.6267 121.48 93.9787 120.396 93.2747 119.34L93.3467 122.664V126H92.3267ZM104.74 126.06C104.372 126.06 104.076 125.976 103.852 125.808C103.636 125.64 103.484 125.432 103.396 125.184C103.004 125.528 102.648 125.772 102.328 125.916C102.008 126.052 101.688 126.12 101.368 126.12C100.848 126.12 100.464 125.952 100.216 125.616C99.9678 125.28 99.8438 124.868 99.8438 124.38C99.8438 124.052 99.9038 123.76 100.024 123.504C100.144 123.248 100.348 123.048 100.636 122.904C100.924 122.752 101.312 122.676 101.8 122.676C102.016 122.676 102.252 122.692 102.508 122.724C102.764 122.748 103.024 122.78 103.288 122.82V122.016C103.288 121.568 103.188 121.264 102.988 121.104C102.796 120.936 102.512 120.852 102.136 120.852C101.624 120.852 101.052 120.992 100.42 121.272L100.108 120.456C100.476 120.288 100.828 120.16 101.164 120.072C101.5 119.984 101.84 119.94 102.184 119.94C102.744 119.94 103.172 120.032 103.468 120.216C103.764 120.4 103.968 120.644 104.08 120.948C104.192 121.252 104.248 121.584 104.248 121.944V124.512C104.248 124.696 104.284 124.852 104.356 124.98C104.428 125.1 104.572 125.16 104.788 125.16H104.92V126.06H104.74ZM100.816 124.368C100.816 124.64 100.88 124.86 101.008 125.028C101.136 125.196 101.32 125.28 101.56 125.28C101.768 125.28 102.008 125.22 102.28 125.1C102.552 124.972 102.888 124.72 103.288 124.344V123.588C102.744 123.5 102.264 123.456 101.848 123.456C101.48 123.456 101.216 123.532 101.056 123.684C100.896 123.836 100.816 124.064 100.816 124.368ZM107.358 118.608H106.254V117.504H107.358V118.608ZM107.298 126H106.314V120.06H107.298V126ZM113.763 126.06C113.395 126.06 113.099 125.976 112.875 125.808C112.659 125.64 112.507 125.432 112.419 125.184C112.027 125.528 111.671 125.772 111.351 125.916C111.031 126.052 110.711 126.12 110.391 126.12C109.871 126.12 109.487 125.952 109.239 125.616C108.991 125.28 108.867 124.868 108.867 124.38C108.867 124.052 108.927 123.76 109.047 123.504C109.167 123.248 109.371 123.048 109.659 122.904C109.947 122.752 110.335 122.676 110.823 122.676C111.039 122.676 111.275 122.692 111.531 122.724C111.787 122.748 112.047 122.78 112.311 122.82V122.016C112.311 121.568 112.211 121.264 112.011 121.104C111.819 120.936 111.535 120.852 111.159 120.852C110.647 120.852 110.075 120.992 109.443 121.272L109.131 120.456C109.499 120.288 109.851 120.16 110.187 120.072C110.523 119.984 110.863 119.94 111.207 119.94C111.767 119.94 112.195 120.032 112.491 120.216C112.787 120.4 112.991 120.644 113.103 120.948C113.215 121.252 113.271 121.584 113.271 121.944V124.512C113.271 124.696 113.307 124.852 113.379 124.98C113.451 125.1 113.595 125.16 113.811 125.16H113.943V126.06H113.763ZM109.839 124.368C109.839 124.64 109.903 124.86 110.031 125.028C110.159 125.196 110.343 125.28 110.583 125.28C110.791 125.28 111.031 125.22 111.303 125.1C111.575 124.972 111.911 124.72 112.311 124.344V123.588C111.767 123.5 111.287 123.456 110.871 123.456C110.503 123.456 110.239 123.532 110.079 123.684C109.919 123.836 109.839 124.064 109.839 124.368ZM118.457 120.924C118.097 120.924 117.745 120.988 117.401 121.116C117.065 121.244 116.705 121.488 116.321 121.848V126H115.337V120.06H116.273V121.02C116.681 120.62 117.053 120.34 117.389 120.18C117.733 120.02 118.089 119.94 118.457 119.94V120.924ZM124.088 126.06C123.72 126.06 123.424 125.976 123.2 125.808C122.984 125.64 122.832 125.432 122.744 125.184C122.352 125.528 121.996 125.772 121.676 125.916C121.356 126.052 121.036 126.12 120.716 126.12C120.196 126.12 119.812 125.952 119.564 125.616C119.316 125.28 119.192 124.868 119.192 124.38C119.192 124.052 119.252 123.76 119.372 123.504C119.492 123.248 119.696 123.048 119.984 122.904C120.272 122.752 120.66 122.676 121.148 122.676C121.364 122.676 121.6 122.692 121.855 122.724C122.112 122.748 122.372 122.78 122.636 122.82V122.016C122.636 121.568 122.536 121.264 122.336 121.104C122.144 120.936 121.86 120.852 121.484 120.852C120.972 120.852 120.4 120.992 119.768 121.272L119.456 120.456C119.824 120.288 120.176 120.16 120.512 120.072C120.848 119.984 121.188 119.94 121.532 119.94C122.092 119.94 122.52 120.032 122.816 120.216C123.112 120.4 123.316 120.644 123.428 120.948C123.54 121.252 123.596 121.584 123.596 121.944V124.512C123.596 124.696 123.632 124.852 123.704 124.98C123.776 125.1 123.92 125.16 124.136 125.16H124.268V126.06H124.088ZM120.164 124.368C120.164 124.64 120.228 124.86 120.356 125.028C120.484 125.196 120.668 125.28 120.908 125.28C121.116 125.28 121.356 125.22 121.628 125.1C121.9 124.972 122.236 124.72 122.636 124.344V123.588C122.092 123.5 121.612 123.456 121.196 123.456C120.828 123.456 120.564 123.532 120.404 123.684C120.244 123.836 120.164 124.064 120.164 124.368ZM129.715 117.84L132.199 123.888L134.695 117.84H135.883V126H134.863V122.508L134.995 119.364L132.655 125.04H131.671L129.379 119.34L129.511 122.508V126H128.491V117.84H129.715ZM142.928 122.664V123.384C142.928 124.232 142.708 124.9 142.268 125.388C141.836 125.876 141.216 126.12 140.408 126.12C139.608 126.12 138.988 125.876 138.548 125.388C138.108 124.9 137.888 124.232 137.888 123.384V122.664C137.888 121.832 138.104 121.172 138.536 120.684C138.976 120.188 139.6 119.94 140.408 119.94C141.216 119.94 141.836 120.188 142.268 120.684C142.708 121.172 142.928 121.832 142.928 122.664ZM141.908 122.664C141.908 122.096 141.78 121.652 141.524 121.332C141.268 121.004 140.896 120.84 140.408 120.84C139.928 120.84 139.556 121.004 139.292 121.332C139.036 121.652 138.908 122.096 138.908 122.664V123.384C138.908 123.976 139.036 124.432 139.292 124.752C139.556 125.072 139.928 125.232 140.408 125.232C140.896 125.232 141.268 125.072 141.524 124.752C141.78 124.432 141.908 123.976 141.908 123.384V122.664ZM149.516 123.384C149.516 124.216 149.308 124.88 148.892 125.376C148.476 125.872 147.864 126.12 147.056 126.12C146.256 126.12 145.464 125.908 144.68 125.484V117.12H145.664V120.864C146.024 120.528 146.352 120.292 146.648 120.156C146.952 120.012 147.26 119.94 147.572 119.94C148.196 119.94 148.676 120.18 149.012 120.66C149.348 121.14 149.516 121.816 149.516 122.688V123.384ZM147.332 120.864C147.108 120.864 146.868 120.924 146.612 121.044C146.364 121.164 146.048 121.412 145.664 121.788V124.932C146.136 125.132 146.58 125.232 146.996 125.232C147.532 125.232 147.916 125.068 148.148 124.74C148.38 124.404 148.496 123.952 148.496 123.384V122.688C148.496 122.064 148.4 121.604 148.208 121.308C148.016 121.012 147.724 120.864 147.332 120.864ZM152.381 118.608H151.277V117.504H152.381V118.608ZM152.321 126H151.337V120.06H152.321V126ZM159.195 126.744C159.195 127.328 158.955 127.796 158.475 128.148C158.003 128.5 157.351 128.676 156.519 128.676C156.103 128.676 155.667 128.62 155.211 128.508C154.763 128.396 154.339 128.216 153.939 127.968L154.275 127.2C154.675 127.424 155.059 127.58 155.427 127.668C155.803 127.764 156.167 127.812 156.519 127.812C157.063 127.812 157.483 127.724 157.779 127.548C158.075 127.372 158.223 127.136 158.223 126.84C158.223 126.624 158.151 126.456 158.007 126.336C157.863 126.224 157.631 126.168 157.311 126.168H155.931C155.411 126.168 155.035 126.044 154.803 125.796C154.571 125.548 154.455 125.276 154.455 124.98C154.455 124.772 154.503 124.568 154.599 124.368C154.695 124.16 154.831 123.956 155.007 123.756C154.727 123.588 154.503 123.36 154.335 123.072C154.167 122.776 154.083 122.42 154.083 122.004C154.083 121.548 154.179 121.168 154.371 120.864C154.571 120.56 154.835 120.332 155.163 120.18C155.491 120.02 155.859 119.94 156.267 119.94H156.471C156.751 119.94 157.007 119.98 157.239 120.06H159.375V120.936L158.079 120.756C158.247 120.9 158.383 121.08 158.487 121.296C158.591 121.504 158.643 121.76 158.643 122.064C158.643 122.496 158.543 122.86 158.343 123.156C158.151 123.452 157.891 123.68 157.563 123.84C157.235 123.992 156.871 124.068 156.471 124.068H156.267C156.163 124.068 156.063 124.064 155.967 124.056C155.871 124.04 155.775 124.024 155.679 124.008C155.447 124.264 155.331 124.516 155.331 124.764C155.331 125.084 155.555 125.244 156.003 125.244H157.347C157.923 125.244 158.375 125.372 158.703 125.628C159.031 125.884 159.195 126.256 159.195 126.744ZM156.471 123.216C156.783 123.216 157.059 123.116 157.299 122.916C157.539 122.716 157.659 122.412 157.659 122.004C157.659 121.604 157.539 121.304 157.299 121.104C157.059 120.896 156.783 120.792 156.471 120.792H156.267C155.947 120.792 155.667 120.896 155.427 121.104C155.187 121.304 155.067 121.604 155.067 122.004C155.067 122.412 155.187 122.716 155.427 122.916C155.667 123.116 155.947 123.216 156.267 123.216H156.471ZM160.665 124.56V117.12H161.649V124.512C161.649 124.728 161.681 124.892 161.745 125.004C161.817 125.108 161.957 125.16 162.165 125.16H162.357V126.06H162.081C161.553 126.06 161.185 125.92 160.977 125.64C160.769 125.36 160.665 125 160.665 124.56ZM164.885 118.608H163.781V117.504H164.885V118.608ZM164.825 126H163.841V120.06H164.825V126ZM171.291 126.06C170.923 126.06 170.627 125.976 170.403 125.808C170.187 125.64 170.035 125.432 169.947 125.184C169.555 125.528 169.199 125.772 168.879 125.916C168.559 126.052 168.239 126.12 167.919 126.12C167.399 126.12 167.015 125.952 166.767 125.616C166.519 125.28 166.395 124.868 166.395 124.38C166.395 124.052 166.455 123.76 166.575 123.504C166.695 123.248 166.899 123.048 167.187 122.904C167.475 122.752 167.863 122.676 168.351 122.676C168.567 122.676 168.803 122.692 169.059 122.724C169.315 122.748 169.575 122.78 169.839 122.82V122.016C169.839 121.568 169.739 121.264 169.539 121.104C169.347 120.936 169.063 120.852 168.687 120.852C168.175 120.852 167.603 120.992 166.971 121.272L166.659 120.456C167.027 120.288 167.379 120.16 167.715 120.072C168.051 119.984 168.391 119.94 168.735 119.94C169.295 119.94 169.723 120.032 170.019 120.216C170.315 120.4 170.519 120.644 170.631 120.948C170.743 121.252 170.799 121.584 170.799 121.944V124.512C170.799 124.696 170.835 124.852 170.907 124.98C170.979 125.1 171.123 125.16 171.339 125.16H171.471V126.06H171.291ZM167.367 124.368C167.367 124.64 167.431 124.86 167.559 125.028C167.687 125.196 167.871 125.28 168.111 125.28C168.319 125.28 168.559 125.22 168.831 125.1C169.103 124.972 169.439 124.72 169.839 124.344V123.588C169.295 123.5 168.815 123.456 168.399 123.456C168.031 123.456 167.767 123.532 167.607 123.684C167.447 123.836 167.367 124.064 167.367 124.368ZM175.694 126V117.84H178.094C178.878 117.84 179.454 118.032 179.822 118.416C180.198 118.792 180.386 119.3 180.386 119.94V120.204C180.386 120.556 180.306 120.868 180.146 121.14C179.986 121.412 179.754 121.628 179.45 121.788C179.874 121.924 180.194 122.148 180.41 122.46C180.634 122.764 180.746 123.132 180.746 123.564V123.828C180.746 124.484 180.554 125.012 180.17 125.412C179.794 125.804 179.202 126 178.394 126H175.694ZM178.094 118.8H176.738V121.38H178.094C178.494 121.38 178.794 121.28 178.994 121.08C179.202 120.872 179.306 120.588 179.306 120.228V119.94C179.306 119.588 179.202 119.312 178.994 119.112C178.794 118.904 178.494 118.8 178.094 118.8ZM178.394 122.34H176.738V125.052H178.394C178.818 125.052 179.134 124.944 179.342 124.728C179.558 124.512 179.666 124.212 179.666 123.828V123.54C179.666 123.172 179.558 122.88 179.342 122.664C179.134 122.448 178.818 122.34 178.394 122.34ZM186.805 125.652C186.445 125.828 186.085 125.948 185.725 126.012C185.365 126.084 185.033 126.12 184.729 126.12C183.873 126.12 183.233 125.876 182.809 125.388C182.393 124.9 182.185 124.232 182.185 123.384V122.664C182.185 121.84 182.393 121.18 182.809 120.684C183.233 120.188 183.829 119.94 184.597 119.94C185.005 119.94 185.377 120.024 185.713 120.192C186.057 120.352 186.329 120.6 186.529 120.936C186.737 121.264 186.841 121.688 186.841 122.208C186.841 122.544 186.793 122.928 186.697 123.36H183.157V123.384C183.157 123.992 183.281 124.452 183.529 124.764C183.785 125.076 184.193 125.232 184.753 125.232C185.009 125.232 185.289 125.2 185.593 125.136C185.905 125.072 186.209 124.972 186.505 124.836L186.805 125.652ZM184.597 120.804C184.133 120.804 183.781 120.956 183.541 121.26C183.309 121.556 183.181 121.976 183.157 122.52H185.845C185.869 122.376 185.881 122.24 185.881 122.112C185.881 121.664 185.753 121.336 185.497 121.128C185.249 120.912 184.949 120.804 184.597 120.804ZM191.4 120.864C191.176 120.864 190.912 120.92 190.608 121.032C190.312 121.144 189.952 121.372 189.528 121.716V126H188.544V120.06H189.48V120.888C189.904 120.528 190.288 120.28 190.632 120.144C190.984 120.008 191.32 119.94 191.64 119.94C192.192 119.94 192.612 120.116 192.9 120.468C193.196 120.812 193.344 121.304 193.344 121.944V126H192.36V122.088C192.36 121.272 192.04 120.864 191.4 120.864ZM199.708 125.652C199.348 125.828 198.988 125.948 198.628 126.012C198.268 126.084 197.936 126.12 197.632 126.12C196.776 126.12 196.136 125.876 195.712 125.388C195.296 124.9 195.088 124.232 195.088 123.384V122.664C195.088 121.84 195.296 121.18 195.712 120.684C196.136 120.188 196.732 119.94 197.5 119.94C197.908 119.94 198.28 120.024 198.616 120.192C198.96 120.352 199.232 120.6 199.432 120.936C199.64 121.264 199.744 121.688 199.744 122.208C199.744 122.544 199.696 122.928 199.6 123.36H196.06V123.384C196.06 123.992 196.184 124.452 196.432 124.764C196.688 125.076 197.096 125.232 197.656 125.232C197.912 125.232 198.192 125.2 198.496 125.136C198.808 125.072 199.112 124.972 199.408 124.836L199.708 125.652ZM197.5 120.804C197.036 120.804 196.684 120.956 196.444 121.26C196.212 121.556 196.084 121.976 196.06 122.52H198.748C198.772 122.376 198.784 122.24 198.784 122.112C198.784 121.664 198.656 121.336 198.4 121.128C198.152 120.912 197.852 120.804 197.5 120.804ZM205.059 126V125.172C204.691 125.524 204.355 125.772 204.051 125.916C203.755 126.052 203.447 126.12 203.127 126.12C202.495 126.12 202.007 125.88 201.663 125.4C201.327 124.92 201.159 124.248 201.159 123.384V122.688C201.159 121.848 201.367 121.18 201.783 120.684C202.207 120.188 202.819 119.94 203.619 119.94C203.851 119.94 204.083 119.964 204.315 120.012C204.547 120.06 204.779 120.128 205.011 120.216V117.12H205.995V126H205.059ZM202.179 123.384C202.179 124.008 202.275 124.468 202.467 124.764C202.667 125.052 202.963 125.196 203.355 125.196C203.587 125.196 203.827 125.14 204.075 125.028C204.323 124.908 204.635 124.664 205.011 124.296V121.128C204.779 121.024 204.555 120.952 204.339 120.912C204.123 120.864 203.911 120.84 203.703 120.84C203.159 120.84 202.767 121.004 202.527 121.332C202.295 121.66 202.179 122.112 202.179 122.688V123.384ZM209.159 118.608H208.055V117.504H209.159V118.608ZM209.099 126H208.115V120.06H209.099V126ZM211.916 122.676V123.384C211.916 123.992 212.028 124.452 212.252 124.764C212.476 125.068 212.832 125.22 213.32 125.22C213.8 125.22 214.316 125.096 214.868 124.848L215.168 125.676C214.512 125.972 213.876 126.12 213.26 126.12C212.492 126.12 211.908 125.876 211.508 125.388C211.108 124.9 210.908 124.232 210.908 123.384V122.676C210.908 121.828 211.108 121.16 211.508 120.672C211.908 120.184 212.492 119.94 213.26 119.94C213.548 119.94 213.844 119.98 214.148 120.06C214.46 120.132 214.772 120.236 215.084 120.372L214.784 121.212C214.52 121.1 214.264 121.012 214.016 120.948C213.776 120.884 213.544 120.852 213.32 120.852C212.832 120.852 212.476 121.008 212.252 121.32C212.028 121.624 211.916 122.076 211.916 122.676ZM219.875 125.784C219.427 126.008 218.951 126.12 218.447 126.12C218.015 126.12 217.675 126.032 217.427 125.856C217.187 125.68 217.015 125.444 216.911 125.148C216.815 124.852 216.767 124.524 216.767 124.164V120.924H215.735V120.06H216.767V118.404H217.751V120.06H219.695V120.924H217.751V124.128C217.751 124.544 217.819 124.832 217.955 124.992C218.099 125.144 218.319 125.22 218.615 125.22C218.759 125.22 218.907 125.204 219.059 125.172C219.219 125.132 219.391 125.068 219.575 124.98L219.875 125.784ZM225.873 122.664V123.384C225.873 124.232 225.653 124.9 225.213 125.388C224.781 125.876 224.161 126.12 223.353 126.12C222.553 126.12 221.933 125.876 221.493 125.388C221.053 124.9 220.833 124.232 220.833 123.384V122.664C220.833 121.832 221.049 121.172 221.481 120.684C221.921 120.188 222.545 119.94 223.353 119.94C224.161 119.94 224.781 120.188 225.213 120.684C225.653 121.172 225.873 121.832 225.873 122.664ZM224.853 122.664C224.853 122.096 224.725 121.652 224.469 121.332C224.213 121.004 223.841 120.84 223.353 120.84C222.873 120.84 222.501 121.004 222.237 121.332C221.981 121.652 221.853 122.096 221.853 122.664V123.384C221.853 123.976 221.981 124.432 222.237 124.752C222.501 125.072 222.873 125.232 223.353 125.232C223.841 125.232 224.213 125.072 224.469 124.752C224.725 124.432 224.853 123.976 224.853 123.384V122.664Z" fill="black" fill-opacity="0.83"/>
<path d="M124.661 44.3025C138.464 44.3025 150.868 46.5202 159.748 50.0339C164.194 51.7931 167.657 53.838 169.975 56.0066C172.29 58.1721 173.323 60.3169 173.323 62.3494C173.322 64.3817 172.289 66.5259 169.975 68.6912C167.657 70.8597 164.194 72.9046 159.748 74.6638C150.868 78.1776 138.464 80.3953 124.661 80.3953C110.859 80.3953 98.4545 78.1776 89.5745 74.6638C85.1286 72.9046 81.6659 70.8597 79.3479 68.6912C77.0334 66.5259 76.0004 64.3817 76.0002 62.3494C76.0002 60.3169 77.0332 58.1721 79.3479 56.0066C81.6659 53.838 85.1286 51.7931 89.5745 50.0339C98.4545 46.5202 110.859 44.3025 124.661 44.3025Z" stroke="#B07E68" stroke-width="4"/>
<path d="M150.411 2.02893C156.946 2.02898 163.045 5.70987 167.588 12.0299C172.129 18.347 175 27.1755 175 37.0182C175 46.8609 172.129 55.6893 167.588 62.0065C163.045 68.3266 156.946 72.0074 150.411 72.0074C143.877 72.0074 137.778 68.3266 133.235 62.0065C128.694 55.6893 125.823 46.8609 125.823 37.0182C125.823 27.1755 128.694 18.347 133.235 12.0299C137.778 5.7099 143.877 2.02893 150.411 2.02893Z" stroke="#69A2B1" stroke-width="4"/>
<path d="M102.321 72.8175C108.296 72.8175 113.954 69.1683 118.211 62.755C122.457 56.3565 125.148 47.4005 125.148 37.4083C125.148 27.4164 122.457 18.461 118.211 12.0626C113.954 5.64931 108.296 2.00012 102.321 2.00012C96.3461 2.0002 90.6885 5.64952 86.4322 12.0626C82.1857 18.461 79.4938 27.4163 79.4937 37.4083C79.4937 47.4005 82.1857 56.3565 86.4322 62.755C90.6885 69.1681 96.3462 72.8174 102.321 72.8175Z" stroke="#69A2B1" stroke-width="4"/>
<path d="M146.918 2.02887C153.452 2.02892 159.552 5.70981 164.095 12.0298C168.636 18.3469 171.507 27.1754 171.507 37.0181C171.507 46.8609 168.636 55.6893 164.095 62.0064C159.552 68.3265 153.452 72.0073 146.918 72.0074C140.384 72.0074 134.284 68.3265 129.741 62.0064C125.2 55.6893 122.329 46.8609 122.329 37.0181C122.329 27.1754 125.2 18.3469 129.741 12.0298C134.284 5.70984 140.384 2.02887 146.918 2.02887Z" stroke="#69A2B1" stroke-width="4"/>
<path d="M98.8274 72.8175C104.802 72.8175 110.461 69.1683 114.717 62.755C118.964 56.3565 121.655 47.4005 121.655 37.4083C121.654 27.4164 118.963 18.461 114.717 12.0626C110.461 5.64931 104.802 2.00012 98.8274 2.00012C92.8526 2.0002 87.195 5.64952 82.9387 12.0626C78.6922 18.461 76.0003 27.4163 76.0002 37.4083C76.0002 47.4005 78.6922 56.3565 82.9387 62.755C87.195 69.1681 92.8527 72.8174 98.8274 72.8175Z" stroke="#69A2B1" stroke-width="4"/>
<path d="M101.343 64.0265C93.9535 68.5292 90.4852 69.2303 84.484 69.9817C86.4852 72.2872 87.8204 73.5481 93.2071 75.3497C99.5474 76.9054 106.4 78.3454 111.408 78.3693C111.408 78.3693 123.879 78.7387 128.519 79.0403C133.159 79.3419 148.949 77.9501 155.192 75.3497C161.434 72.7494 164.577 72.1907 169.031 68.7235C165.867 69.3078 162.871 69.0397 159.469 67.4654C153.532 65.7131 150.336 64.2427 147.223 62.1812C141.094 59.201 144.036 61.9295 138.165 56.8131C132.293 51.6966 136.99 54.4646 134.558 53.2064C132.126 51.9482 130.867 49.5997 130.867 49.5997C130.867 49.5997 129.106 46.3286 128.603 43.6445C128.1 40.9605 125.332 40.7927 125.332 40.7927C125.332 40.7927 121.072 41.1657 120.802 43.98C120.532 46.7944 118.37 49.1803 117.447 50.6062C116.525 52.0321 115.405 53.1736 113.505 55.2195C108.461 60.4064 105.86 61.9697 101.343 64.0265Z" fill="#69A2B1" stroke="black" stroke-width="3"/>
<path d="M136.619 40.2057C134.097 45.6758 129.322 51.9483 130.16 54.213C130.999 56.4776 117.327 54.5485 119.089 53.3742C120.85 52.1999 115.147 46.077 113.889 42.8058C112.63 39.5346 111.876 35.3408 111.876 35.3408C111.716 34.2904 111.204 33.1601 110.953 30.1405C110.701 27.121 111.54 24.5208 111.54 24.5208C111.54 24.5208 111.875 22.5917 113.05 20.998C114.224 19.4044 114.979 18.7334 114.979 18.7334C117.129 16.9133 119.077 16.1964 124.289 15.6299C127.932 15.6568 129.91 15.8476 132.928 17.5591C134.79 19.222 135.897 20.1096 136.619 22.5917C138.177 27.4217 138.797 32.3532 138.464 34.1666C138.131 35.9799 136.619 40.2057 136.619 40.2057Z" fill="white" stroke="black" stroke-width="3"/>
<path d="M129.029 39.306C129.029 38.4326 120.294 38.4326 120.294 39.306C120.294 40.1795 121.168 44.5469 124.662 44.5469C128.156 44.5469 129.029 40.1795 129.029 39.306Z" fill="black" stroke="black" stroke-width="0.2"/>
</svg>
