<svg width="109" height="40" viewBox="0 0 109 40" fill="none" xmlns="http://www.w3.org/2000/svg">
<g filter="url(#filter0_d_2379_639)">
<rect x="4" width="101" height="32" rx="4" fill="#C09886"/>
</g>
<path d="M18.077 19.8H18.061L18.045 19.816C17.9277 19.9973 17.7463 20.2693 17.501 20.632C16.541 20.9093 15.357 21.048 13.949 21.048C12.957 21.048 12.013 20.9893 11.117 20.872L10.989 19.208C11.757 19.4427 12.5517 19.56 13.373 19.56C13.8103 19.56 14.301 19.5013 14.845 19.384C15.517 19.256 15.965 19.0853 16.189 18.872C16.285 18.776 16.333 18.5787 16.333 18.28C16.333 17.768 16.2637 17.144 16.125 16.408C15.9863 16.2693 15.6663 16.088 15.165 15.864C14.461 15.5547 13.7517 15.2453 13.037 14.936C11.9597 14.4347 11.357 14.0667 11.229 13.832C11.069 13.544 10.989 12.6373 10.989 11.112C10.989 10.8453 11.0583 10.4347 11.197 9.88C11.357 9.26133 11.517 8.888 11.677 8.76C11.901 8.568 12.5463 8.472 13.613 8.472C14.8503 8.472 16.3863 8.568 18.221 8.76L17.885 9.992C16.8717 9.94933 16.1517 9.928 15.725 9.928C14.6477 9.928 13.901 10.04 13.485 10.264L13.165 12.552C13.3143 12.744 13.8263 13.0213 14.701 13.384C16.077 13.9493 16.8717 14.2853 17.085 14.392C17.9597 14.8187 18.477 15.208 18.637 15.56C18.7223 15.7413 18.765 15.992 18.765 16.312C18.765 17.3147 18.5303 18.472 18.061 19.784L18.077 19.8ZM21.673 20.824L19.849 21.032C20.2543 18.3867 20.601 16.4613 20.889 15.256C21.3903 13.1227 22.0463 11.288 22.857 9.752L26.697 9.512C27.529 12.392 28.105 14.6533 28.425 16.296C28.4997 16.648 28.5903 17.1707 28.697 17.864C28.697 17.864 28.793 18.9093 28.985 21L26.761 20.776L26.537 17.528L23.593 17.896L22.409 17.592L21.673 20.824ZM26.265 15.528C26.265 15.2187 26.1103 14.4987 25.801 13.368C25.4917 12.2267 25.257 11.528 25.097 11.272L23.833 11.384C23.417 12.632 23.129 13.704 22.969 14.6C22.9477 14.7813 22.9157 15.0587 22.873 15.432C22.8303 15.656 22.777 15.9867 22.713 16.424L26.217 16.104C26.249 16.104 26.265 15.912 26.265 15.528ZM32.9984 20.888L31.2864 21.032L30.8864 12.664C30.8757 12.0773 30.8437 11.1653 30.7904 9.928L33.5584 9.672C33.441 11.5493 33.3237 13.4213 33.2064 15.288C33.0677 17.5707 32.9984 19.4373 32.9984 20.888ZM41.8499 14.856C42.3939 14.984 42.7832 15.0853 43.0179 15.16C43.5512 15.3413 43.8765 15.5387 43.9939 15.752C44.0685 15.8907 44.1059 16.1093 44.1059 16.408C44.1059 16.5573 44.0685 16.9947 43.9939 17.72C43.9512 18.1147 43.7592 18.616 43.4179 19.224C43.0659 19.8853 42.7352 20.2907 42.4259 20.44C41.5832 20.856 40.6125 21.064 39.5139 21.064C38.9699 21.064 37.7859 20.9733 35.9619 20.792C35.9405 20.4827 35.9299 20.184 35.9299 19.896C35.9299 18.5627 35.9885 16.3067 36.1059 13.128C36.1165 12.9467 36.1219 11.8 36.1219 9.688C36.7939 9.656 37.3539 9.64 37.8019 9.64C39.1032 9.64 40.2392 9.71467 41.2099 9.864C41.6792 9.93867 42.0952 10.312 42.4579 10.984C42.4899 11.0267 42.5219 11.0853 42.5539 11.16C42.9912 12.1093 43.2099 12.856 43.2099 13.4C43.2099 13.6347 43.0392 13.912 42.6979 14.232C42.4312 14.4773 42.1485 14.6853 41.8499 14.856ZM41.2419 13.528C41.2419 13.176 40.9699 12.3867 40.4259 11.16L38.1379 11.288C38.1379 11.4373 38.1112 12.2533 38.0579 13.736C38.0259 13.8213 38.0099 14.072 38.0099 14.488C38.0099 14.4347 38.0312 14.6907 38.0739 15.256C38.0632 15.1173 38.0579 15.4853 38.0579 16.36C38.0579 17.352 38.0845 18.36 38.1379 19.384C38.4685 19.4907 39.0445 19.544 39.8659 19.544C40.5059 19.544 40.8899 19.5067 41.0179 19.432C41.3059 19.2507 41.5512 18.856 41.7539 18.248C41.9352 17.7147 42.0259 17.2453 42.0259 16.84C42.0259 16.5947 41.9832 16.424 41.8979 16.328C41.7059 16.1253 40.7779 16.0453 39.1139 16.088L39.2099 14.984L40.1699 14.728C40.8845 14.216 41.2419 13.816 41.2419 13.528ZM47.0636 20.824L45.2396 21.032C45.645 18.3867 45.9916 16.4613 46.2796 15.256C46.781 13.1227 47.437 11.288 48.2476 9.752L52.0876 9.512C52.9196 12.392 53.4956 14.6533 53.8156 16.296C53.8903 16.648 53.981 17.1707 54.0876 17.864C54.0876 17.864 54.1836 18.9093 54.3756 21L52.1516 20.776L51.9276 17.528L48.9836 17.896L47.7996 17.592L47.0636 20.824ZM51.6556 15.528C51.6556 15.2187 51.501 14.4987 51.1916 13.368C50.8823 12.2267 50.6476 11.528 50.4876 11.272L49.2236 11.384C48.8076 12.632 48.5196 13.704 48.3596 14.6C48.3383 14.7813 48.3063 15.0587 48.2636 15.432C48.221 15.656 48.1676 15.9867 48.1036 16.424L51.6076 16.104C51.6396 16.104 51.6556 15.912 51.6556 15.528ZM72.3323 21.16C72.3429 19.7627 72.2896 18.12 72.1723 16.232C72.0443 13.864 71.8683 12.3173 71.6443 11.592L71.0683 11.688C70.6309 12.7547 70.1936 13.8213 69.7563 14.888C69.2229 16.168 68.8336 17.256 68.5883 18.152L66.9563 18.632C66.5296 17.2133 66.1296 16.0827 65.7563 15.24C65.0629 13.6293 64.5829 12.3973 64.3163 11.544L63.7403 11.912V11.944C63.7403 12.1147 63.6923 12.76 63.5963 13.88C63.5109 14.8507 63.3936 16.3013 63.2443 18.232C63.1483 19.512 63.1163 20.3707 63.1483 20.808L60.7963 21.096L61.4363 14.968C61.6069 13.6453 61.8469 11.6667 62.1562 9.032L65.2123 8.504C66.0443 10.5093 66.5243 11.6773 66.6523 12.008C67.1749 13.3413 67.5749 14.5467 67.8523 15.624C68.1296 14.6 68.5936 13.416 69.2443 12.072C70.1723 10.152 70.7163 9.00533 70.8763 8.632L73.5483 8.92C73.6016 9.96533 73.8043 11.8587 74.1563 14.6C74.4656 16.9787 74.6149 18.872 74.6043 20.28V20.76L72.3323 21.16ZM77.9855 20.824L76.1615 21.032C76.5668 18.3867 76.9135 16.4613 77.2015 15.256C77.7028 13.1227 78.3588 11.288 79.1695 9.752L83.0095 9.512C83.8415 12.392 84.4175 14.6533 84.7375 16.296C84.8122 16.648 84.9028 17.1707 85.0095 17.864C85.0095 17.864 85.1055 18.9093 85.2975 21L83.0735 20.776L82.8495 17.528L79.9055 17.896L78.7215 17.592L77.9855 20.824ZM82.5775 15.528C82.5775 15.2187 82.4228 14.4987 82.1135 13.368C81.8042 12.2267 81.5695 11.528 81.4095 11.272L80.1455 11.384C79.7295 12.632 79.4415 13.704 79.2815 14.6C79.2602 14.7813 79.2282 15.0587 79.1855 15.432C79.1428 15.656 79.0895 15.9867 79.0255 16.424L82.5295 16.104C82.5615 16.104 82.5775 15.912 82.5775 15.528ZM89.3109 20.888L87.5989 21.032L87.1989 12.664C87.1882 12.0773 87.1562 11.1653 87.1029 9.928L89.8709 9.672C89.7535 11.5493 89.6362 13.4213 89.5189 15.288C89.3802 17.5707 89.3109 19.4373 89.3109 20.888ZM94.3864 11.336L94.1144 13.32C94.1997 13.448 94.989 13.8267 96.4824 14.456C97.933 15.064 98.7597 15.5867 98.9624 16.024C99.0477 16.1733 99.0904 16.3973 99.0904 16.696C99.0904 16.984 99.0157 17.5227 98.8664 18.312C98.7064 19.1653 98.5677 19.6827 98.4504 19.864C98.3437 20.0347 98.173 20.296 97.9384 20.648C97.0744 20.9147 96.0024 21.048 94.7224 21.048C93.7624 21.048 92.9037 20.9893 92.1464 20.872L92.0184 19.224C92.669 19.448 93.3997 19.56 94.2104 19.56C94.6157 19.56 95.0477 19.512 95.5064 19.416C96.061 19.2987 96.4557 19.144 96.6904 18.952C96.765 18.888 96.8024 18.7227 96.8024 18.456C96.8024 18.04 96.733 17.5013 96.5944 16.84C96.4024 16.6587 95.6504 16.2907 94.3384 15.736C93.1117 15.224 92.4184 14.8293 92.2584 14.552C92.0984 14.2747 92.0184 13.4907 92.0184 12.2C92.0184 11.5387 92.0397 11.128 92.0824 10.968C92.1464 10.744 92.3544 10.4027 92.7064 9.944C92.8664 9.73067 93.5064 9.624 94.6264 9.624C95.7784 9.624 97.1117 9.70933 98.6264 9.88L98.2904 11.128C98.269 11.128 98.237 11.128 98.1944 11.128C97.9917 11.128 97.677 11.1173 97.2504 11.096C96.8344 11.0747 96.5197 11.064 96.3064 11.064C95.357 11.064 94.717 11.1547 94.3864 11.336Z" fill="black"/>
<defs>
<filter id="filter0_d_2379_639" x="0" y="0" width="109" height="40" filterUnits="userSpaceOnUse" color-interpolation-filters="sRGB">
<feFlood flood-opacity="0" result="BackgroundImageFix"/>
<feColorMatrix in="SourceAlpha" type="matrix" values="0 0 0 0 0 0 0 0 0 0 0 0 0 0 0 0 0 0 127 0" result="hardAlpha"/>
<feOffset dy="4"/>
<feGaussianBlur stdDeviation="2"/>
<feComposite in2="hardAlpha" operator="out"/>
<feColorMatrix type="matrix" values="0 0 0 0 0 0 0 0 0 0 0 0 0 0 0 0 0 0 0.25 0"/>
<feBlend mode="normal" in2="BackgroundImageFix" result="effect1_dropShadow_2379_639"/>
<feBlend mode="normal" in="SourceGraphic" in2="effect1_dropShadow_2379_639" result="shape"/>
</filter>
</defs>
</svg>
